<?xml version="1.0" encoding="utf-8"?>
<!-- Generator: Adobe Illustrator 21.1.0, SVG Export Plug-In . SVG Version: 6.00 Build 0)  -->
<svg version="1.1" id="Layer_1" xmlns="http://www.w3.org/2000/svg" xmlns:xlink="http://www.w3.org/1999/xlink" x="0px" y="0px"
	 viewBox="0 0 101.7 84" style="enable-background:new 0 0 101.7 84;" xml:space="preserve">
<style type="text/css">
	.st0{fill:#18A1E6;}
</style>
<g>
	<path class="st0" d="M0,13h23.8v7H0V13z M0,0h23.8v7H0V0z M42.7,25.9H0v7h41.1c4.5,0,15,0.1,18.9,6.4v-3.9
		C58.1,29.2,52.5,25.9,42.7,25.9z M42.8,38.9H0v7h41.1c10,0,16.3,0.4,18.9,1.8v-3.1C58,39.7,49.6,38.9,42.8,38.9z M42.7,71.9H0v-7
		h41.1c4.5,0,15-0.1,18.9-6.4v3.9C58.1,68.6,52.5,71.9,42.7,71.9z M42.8,58.9H0v-7h41.1c10,0,16.3-0.4,18.9-1.8v3.1
		C58,58.1,49.6,58.9,42.8,58.9z M70.4,84h31.4v-4.3H71.3c-2.7,0-9.1-0.1-11.4-3.8v2.4C61,82,64.4,84,70.4,84z M70.3,76.1h31.4v-4.3
		H71.3c-6.1,0-9.9-0.2-11.4-1.1v1.9C61.1,75.6,66.2,76.1,70.3,76.1z"/>
</g>
</svg>
