<?xml version="1.0" encoding="utf-8"?>
<!-- Generator: Adobe Illustrator 21.1.0, SVG Export Plug-In . SVG Version: 6.00 Build 0)  -->
<svg version="1.1" id="Layer_1" xmlns="http://www.w3.org/2000/svg" xmlns:xlink="http://www.w3.org/1999/xlink" x="0px" y="0px"
	 viewBox="0 0 720 288" style="enable-background:new 0 0 720 288;" xml:space="preserve">
<style type="text/css">
	.st0{fill:#414042;}
	.st1{fill:#0062A5;}
</style>
<path class="st0" d="M120.9,128.4l-0.3-0.3c-20.1-20.1-52.6-20.1-72.7,0c-20.1,19.9-20.1,52.6,0,72.7c19.8,20.1,52.8,20.1,72.7,0
	l13.1,13.1v0.3c-27.7,27.4-71.3,27.7-99,0c-27.7-28-27.7-71.6-0.3-99.2c27.9-28,73-26.6,99.5,0L120.9,128.4z"/>
<path class="st0" d="M292.5,165c0,38.8-31,69.9-70.4,69.9c-39.1,0-69.9-31-69.9-69.9v-0.3V47.5h18.7v68.8
	c12.6-13.4,30.5-21.8,51.1-21.8C259.8,94.5,292.5,125.3,292.5,165z M273.8,164.7c0-28.5-22.9-51.4-51.4-51.4
	c-28.2,0-51.4,22.9-51.4,51.4c0,28.2,23.2,51.4,51.4,51.4C250.9,216.1,273.8,192.9,273.8,164.7z"/>
<path class="st0" d="M671.5,116.3V47.5h18.7V165c0,38.8-30.7,69.9-69.9,69.9c-39.4,0-70.4-31-70.4-69.9c0-39.7,32.7-70.4,70.4-70.4
	C640.7,94.5,658.9,102.9,671.5,116.3z M671.5,164.7c0-28.5-23.2-51.4-51.4-51.4c-28.5,0-51.4,22.9-51.4,51.4
	c0,28.2,22.9,51.4,51.4,51.4C648.3,216.1,671.5,192.9,671.5,164.7z"/>
<path class="st1" d="M451.2,164.9c0,38.9-31,69.9-70.4,69.9c-39.1,0-69.9-31-69.9-69.9c0-39.4,30.2-70.4,69.9-70.4
	C418.5,94.5,451.2,125.3,451.2,164.9z M432.5,164.7c0-28.5-22.9-51.4-51.4-51.4c-28.2,0-51.4,22.9-51.4,51.4
	c0,28.2,23.2,51.4,51.4,51.4C409.6,216.1,432.5,192.9,432.5,164.7z"/>
<path class="st0" d="M472.9,154.2c-0.2-49.7,49.5-58,69.9-58V115c-27.9,0-50,9.8-51.1,36.9v83H473L472.9,154.2z"/>
<g>
	<path d="M684.6,226.4c-1.3-2.3-2-4.7-2-7.4c0-2.7,0.7-5.1,2-7.4c1.3-2.3,3.1-4,5.3-5.3c2.3-1.3,4.7-2,7.4-2c2.6,0,5.1,0.7,7.4,2
		c2.3,1.3,4,3.1,5.3,5.3c1.3,2.3,2,4.7,2,7.4c0,2.7-0.7,5.1-2,7.4c-1.3,2.3-3.1,4-5.3,5.3c-2.3,1.3-4.7,1.9-7.4,1.9
		c-2.6,0-5.1-0.6-7.4-1.9C687.7,230.4,686,228.6,684.6,226.4z M685.9,226.6c1.3,1.9,2.9,3.4,4.9,4.5c2,1.1,4.2,1.6,6.6,1.6
		c2.5,0,4.8-0.6,6.9-1.8c2.1-1.2,3.8-2.9,5-5c1.2-2.1,1.8-4.4,1.8-6.9c0-2.5-0.6-4.8-1.8-6.9c-1.2-2.1-2.9-3.8-5-5
		c-2.1-1.2-4.4-1.8-6.9-1.8c-2.5,0-4.8,0.6-6.9,1.8s-3.8,2.9-5,5c-1.2,2.1-1.8,4.4-1.8,6.9C683.6,221.8,684.4,224.3,685.9,226.6z
		 M692.5,225.8v-6.1h4.8c0,0,0.1,0,0.1,0s0.1,0,0.1,0l4.7,6.1h1.4l-4.9-6.3c1.3-0.2,2.3-0.7,3.1-1.5c0.8-0.8,1.2-1.8,1.2-3.1
		c0-0.8-0.2-1.4-0.6-2c-0.4-0.6-0.9-1-1.5-1.3c-0.6-0.3-1.2-0.5-1.7-0.6c-0.6-0.1-1.1-0.2-1.6-0.2h-5.1h-0.2h-0.8l0,14.9H692.5z
		 M692.5,215.1v-3.2h5.3c1.1,0,2.1,0.3,2.8,0.8c0.8,0.5,1.2,1.3,1.2,2.2c0,1.2-0.4,2.1-1.1,2.7c-0.8,0.6-2,0.9-3.7,0.9h-4.5V215.1z"
		/>
</g>
</svg>
